<svg width="168" height="32" viewBox="0 0 168 32" fill="none" xmlns="http://www.w3.org/2000/svg">
<path d="M58.5918 15.3661C58.5918 10.1108 55.1058 5.85898 49.2959 5.85898C43.486 5.85898 40 10.1108 40 15.3661C40 20.6215 43.486 24.8733 49.2959 24.8733C50.6428 24.8733 51.884 24.6356 52.9667 24.2131L54.6833 26.3522H58.1693L55.3435 22.8398C57.4298 21.0969 58.5918 18.4032 58.5918 15.3661ZM49.2959 21.7043C45.7307 21.7043 43.5916 18.8785 43.5916 15.3661C43.5916 11.8538 45.7307 9.02803 49.2959 9.02803C52.8611 9.02803 55.0002 11.8538 55.0002 15.3661C55.0002 17.294 54.3664 19.0106 53.2044 20.1725L51.7255 18.3239H48.2396L50.8012 21.5194C50.3258 21.6514 49.8241 21.7043 49.2959 21.7043Z" fill="#1F1F33"/>
<path d="M64.5061 24.8733C66.9357 24.8733 68.4675 22.8927 69.1541 21.5194C69.2597 21.3081 69.339 21.1497 69.5502 21.2025C69.8935 21.2817 69.7351 21.6514 69.6294 21.8891C69.3918 22.4437 69.2069 22.9455 69.2069 23.7906V24.662H72.5872V10.7182L69.2069 10.7182V16.3961C69.2069 19.618 67.4111 21.8099 65.4569 21.8099C63.6875 21.8099 62.8688 20.9384 62.8688 17.7958V10.7182H59.4885V18.9577C59.4885 22.9191 61.4955 24.8733 64.5061 24.8733Z" fill="#1F1F33"/>
<path d="M87.011 17.5053C87.011 12.4348 83.6571 10.5069 80.4352 10.5069C76.1834 10.5069 73.4897 13.3327 73.4897 17.6901C73.4897 21.8363 75.9721 24.8733 80.488 24.8733C84.2117 24.8733 86.1659 22.6814 86.7733 19.8028H83.3402C82.944 21.044 82.1254 21.9155 80.5144 21.9155C78.4017 21.9155 77.0285 20.6479 76.7908 18.5352H86.9318C86.9846 18.1391 87.011 17.875 87.011 17.5053ZM76.9228 16.2112C77.2661 14.5475 78.2433 13.2534 80.5408 13.2534C82.4951 13.2534 83.4986 14.5211 83.6307 16.2112H76.9228Z" fill="#1F1F33"/>
<path d="M87.475 19.9613C87.607 22.9455 89.7462 24.8733 93.7867 24.8733C97.9065 24.8733 100.151 23.2096 100.151 20.3046C100.151 17.5053 97.6952 16.3961 94.2885 16.0528C91.5684 15.7887 91.2779 15.2341 91.2779 14.5739C91.2779 13.7816 91.8589 13.1478 93.7867 13.1478C95.741 13.1478 96.3219 14.1249 96.4012 14.9964H99.7287C99.5438 12.4612 97.5368 10.5069 93.8659 10.5069C89.9046 10.5069 87.8975 12.4876 87.8975 14.7587C87.8975 16.3169 88.4521 18.5352 92.7304 19.0634C95.3976 19.3803 96.7709 19.5387 96.7709 20.5687C96.7709 21.493 96.0579 22.2324 93.8923 22.2324C91.4363 22.2324 90.8289 20.9912 90.8025 19.9613H87.475Z" fill="#1F1F33"/>
<path d="M109.931 13.676V10.7182H106.128V6.91533L102.748 6.91533V10.7182H100.213V13.676L102.748 13.676V20.3838C102.748 23.7377 104.068 24.662 106.868 24.662H109.931V21.7043H107.581C106.154 21.7043 106.128 21.5722 106.128 20.0405V13.676H109.931Z" fill="#1F1F33"/>
<path d="M114.262 5.64771H110.882V24.662H114.262V24.0546C114.262 23.5265 114.13 23.1039 113.893 22.6286C113.761 22.3645 113.655 22.1004 113.945 21.9948C114.183 21.9155 114.289 22.1796 114.342 22.2588C115.187 23.7906 116.639 24.8733 118.752 24.8733C122.37 24.8733 124.826 21.7043 124.826 17.6901C124.826 13.676 122.37 10.5069 118.752 10.5069C116.586 10.5069 115.187 11.6161 114.342 13.095C114.289 13.2006 114.13 13.5439 113.866 13.4119C113.602 13.2799 113.787 12.9629 113.893 12.6989C114.13 12.2235 114.262 11.801 114.262 11.2464V5.64771ZM117.96 21.8099C115.741 21.8099 114.262 19.9085 114.262 17.6901C114.262 15.4718 115.741 13.5703 117.96 13.5703C120.336 13.5703 121.446 15.4718 121.446 17.6901C121.446 19.9085 120.336 21.8099 117.96 21.8099Z" fill="#1F1F33"/>
<path d="M132.49 10.5069C128.133 10.5069 125.518 13.7288 125.518 17.6901C125.518 21.6514 128.133 24.8733 132.49 24.8733C136.848 24.8733 139.462 21.6514 139.462 17.6901C139.462 13.7288 136.848 10.5069 132.49 10.5069ZM132.49 21.8099C130.192 21.8099 128.898 19.9613 128.898 17.6901C128.898 15.419 130.192 13.5703 132.49 13.5703C134.788 13.5703 136.082 15.419 136.082 17.6901C136.082 19.9613 134.788 21.8099 132.49 21.8099Z" fill="#1F1F33"/>
<path d="M147.017 10.5069C142.66 10.5069 140.045 13.7288 140.045 17.6901C140.045 21.6514 142.66 24.8733 147.017 24.8733C151.374 24.8733 153.989 21.6514 153.989 17.6901C153.989 13.7288 151.374 10.5069 147.017 10.5069ZM147.017 21.8099C144.719 21.8099 143.425 19.9613 143.425 17.6901C143.425 15.419 144.719 13.5703 147.017 13.5703C149.315 13.5703 150.609 15.419 150.609 17.6901C150.609 19.9613 149.315 21.8099 147.017 21.8099Z" fill="#1F1F33"/>
<path d="M168 24.662L161.768 16.5545L167.577 10.7182L163.352 10.7182L158.044 16.4225C157.965 16.5017 157.806 16.6602 157.595 16.5017C157.436 16.3697 157.489 16.1848 157.595 16.0528C158.017 15.5246 158.282 15.0756 158.282 13.9665V5.64771H154.901V24.662H158.282V20.0405L159.496 18.8257L163.775 24.662H168Z" fill="#1F1F33"/>
<path d="M7.584 13.28C6.176 14.464 4.864 15.744 3.584 16.992V12.576C6.368 9.408 11.52 5.056 17.792 5.056C22.944 5.056 28.096 8.064 32 12.576V16.992C29.632 14.56 26.72 11.968 23.712 10.304C25.408 14.08 24.032 17.344 22.56 19.168L23.072 19.808C24.992 18.336 26.816 16.608 28.384 14.944V19.456C24.512 23.968 19.424 26.912 14.272 26.912C9.088 26.912 3.936 23.968 0 19.456V14.944C3.936 19.008 9.088 23.328 14.272 23.328C15.36 23.328 16.48 23.136 17.504 22.784L17.312 22.208C11.232 22.88 7.2 18.08 7.584 13.28ZM0 32H32V20.224C32 20.224 30.528 21.856 28.384 23.328V28.416H3.584V26.304C1.504 24.96 0 23.328 0 23.328V32ZM0 11.744C0 11.744 1.504 10.144 3.584 8.704V3.584H28.384V5.664C30.56 7.04 32 8.704 32 8.704V3.584H28.384V0H0V11.744ZM15.296 11.776C16.64 11.776 17.76 12.96 17.76 14.272H18.432C18.432 12.96 19.552 11.776 20.928 11.776V11.072C19.552 11.072 18.432 9.952 18.432 8.64H17.76C17.76 9.952 16.64 11.072 15.296 11.072V11.776Z" fill="#1F1F33"/>
</svg>
