<?xml version="1.0" standalone="no"?>
<!DOCTYPE svg PUBLIC "-//W3C//DTD SVG 20010904//EN"
 "http://www.w3.org/TR/2001/REC-SVG-20010904/DTD/svg10.dtd">
<svg version="1.0" xmlns="http://www.w3.org/2000/svg"
 width="640.000000pt" height="1280.000000pt" viewBox="0 0 640.000000 1280.000000"
 preserveAspectRatio="xMidYMid meet">
<metadata>
Created by potrace 1.15, written by Peter Selinger 2001-2017
</metadata>
<g transform="translate(0.000000,1280.000000) scale(0.100000,-0.100000)"
fill="#000000" stroke="none">
<path d="M3105 12794 c-211 -24 -423 -96 -572 -195 -18 -11 -33 -17 -33 -11 0
12 105 110 159 148 22 16 41 32 41 37 0 13 -133 7 -200 -9 -76 -17 -155 -59
-266 -139 -73 -53 -163 -105 -181 -105 -4 0 24 33 63 73 107 110 106 108 36
92 -179 -42 -308 -121 -356 -217 -27 -53 -38 -143 -13 -104 61 95 138 196 151
196 8 0 -15 -84 -36 -123 -11 -23 -43 -77 -70 -120 l-50 -77 -29 45 c-26 41
-54 56 -72 39 -3 -4 5 -26 18 -49 14 -23 25 -57 25 -76 0 -39 -24 -79 -47 -79
-12 0 -14 9 -8 48 5 38 3 51 -9 61 -13 11 -17 11 -20 0 -17 -52 -26 -138 -26
-249 0 -109 -2 -130 -15 -130 -8 0 -46 -29 -85 -64 -62 -57 -80 -68 -167 -97
-118 -38 -160 -59 -191 -92 -28 -30 -41 -95 -21 -108 22 -13 27 -11 45 21 20
34 51 53 34 20 -15 -29 -12 -47 15 -90 14 -22 25 -47 25 -55 0 -16 0 -16 111
11 89 22 109 19 109 -13 0 -37 -33 -89 -67 -106 -15 -8 -73 -29 -129 -46 -95
-30 -175 -79 -146 -89 19 -6 14 -25 -22 -101 -39 -83 -56 -79 -56 12 0 50 -2
58 -16 53 -9 -3 -18 -6 -20 -6 -2 0 -4 -16 -4 -37 0 -32 8 -44 72 -105 l72
-69 68 11 c101 15 138 13 138 -7 0 -32 -38 -81 -82 -106 -24 -14 -90 -44 -148
-67 -107 -43 -175 -78 -166 -87 3 -3 23 2 46 11 54 21 55 21 27 -16 -14 -18
-32 -48 -41 -65 -21 -42 -43 -42 -61 1 -19 44 -35 55 -35 22 0 -30 38 -77 95
-116 23 -16 48 -42 54 -58 12 -29 14 -29 39 -16 31 16 99 18 136 4 20 -7 26
-17 26 -38 0 -68 -68 -107 -257 -147 -181 -39 -221 -63 -192 -117 12 -22 12
-22 20 -2 7 21 34 34 55 27 9 -3 9 -12 1 -32 -9 -24 -6 -35 15 -72 36 -63 38
-73 23 -103 -14 -26 -14 -26 24 -26 26 0 68 15 126 45 92 47 120 51 80 11 -36
-36 -47 -97 -47 -251 1 -136 0 -139 -14 -98 -24 67 -95 113 -175 113 -34 0
-96 -62 -109 -109 -5 -20 -10 -78 -10 -130 l0 -94 120 8 c66 4 120 3 120 -1 0
-4 -8 -16 -17 -27 -10 -10 -20 -42 -23 -70 l-5 -51 -75 -16 c-94 -21 -261 -76
-286 -95 -17 -13 -15 -13 16 -5 19 6 36 10 37 10 1 0 -1 -15 -4 -33 -3 -19 2
-49 11 -71 19 -45 21 -108 5 -138 -11 -21 -10 -21 80 -14 88 7 92 6 116 -18
58 -58 15 -111 -123 -155 -53 -17 -119 -36 -145 -42 -34 -8 -47 -16 -43 -26
26 -66 37 -143 31 -206 l-7 -70 108 7 c84 4 116 3 139 -8 l30 -14 -32 -1 c-43
-1 -63 -32 -63 -98 l0 -53 -90 0 c-102 0 -170 -21 -241 -73 l-44 -32 43 -6
c67 -9 68 -14 46 -183 l-7 -49 86 7 c144 12 162 -16 62 -94 -74 -58 -85 -87
-62 -168 9 -31 19 -66 23 -76 6 -15 4 -18 -7 -14 -52 22 -49 25 -49 -53 0 -83
-8 -104 -36 -95 -17 5 -19 0 -19 -61 0 -41 -4 -68 -11 -70 -9 -3 -13 33 -16
124 -2 101 -7 133 -21 154 -16 24 -56 49 -78 49 -5 0 -27 -35 -47 -77 l-37
-78 -1 -273 c-2 -267 -1 -273 19 -287 12 -8 30 -15 39 -15 17 0 17 -2 2 -25
-17 -26 -12 -45 12 -45 36 0 89 -42 239 -190 149 -147 202 -187 265 -204 19
-5 17 -2 -9 12 -54 30 -119 101 -187 205 -35 53 -70 97 -77 97 -14 0 -57 63
-57 84 0 25 20 28 29 4 l8 -23 8 25 c18 58 26 53 74 -42 140 -282 361 -449
926 -698 204 -90 205 -91 205 -86 0 6 -81 53 -295 171 -200 110 -322 192 -402
268 -62 59 -115 131 -128 174 -5 19 -3 22 12 16 15 -5 16 -4 6 8 -6 8 -13 25
-15 39 -2 20 -10 26 -38 30 -43 6 -47 25 -30 123 13 73 20 76 40 12 23 -75
100 -210 164 -291 147 -183 317 -304 717 -509 212 -108 216 -110 194 -127 -25
-19 -49 -140 -85 -438 -38 -302 -87 -578 -107 -600 -2 -2 -3 33 -1 77 2 64 0
86 -13 98 -14 14 -19 3 -54 -117 -31 -107 -39 -150 -39 -218 -1 -74 2 -90 24
-125 l25 -40 7 75 c10 101 27 178 40 186 7 5 9 1 5 -9 -14 -38 -18 -115 -8
-155 17 -60 46 -87 126 -115 63 -22 70 -27 73 -53 2 -16 27 -62 56 -102 l53
-72 6 41 c6 42 13 57 23 46 9 -9 50 -245 74 -422 40 -305 59 -508 95 -1040 26
-383 41 -580 51 -652 l6 -41 28 31 c41 48 80 131 96 207 12 58 12 75 -1 124
-21 79 -19 95 10 106 22 8 25 15 25 57 0 27 -7 84 -15 128 -8 44 -14 97 -15
118 0 36 1 37 33 35 27 -3 32 0 29 17 -7 45 -10 48 -56 41 -26 -4 -47 -3 -50
3 -4 5 3 47 15 93 25 95 28 185 15 446 l-9 174 -40 31 c-21 18 -46 45 -53 60
-15 27 -14 27 11 21 23 -6 25 -3 25 26 0 18 -7 73 -16 122 -20 107 -12 156 37
239 19 33 35 77 40 114 19 130 5 335 -27 398 -14 27 -47 37 -59 17 -3 -6 -2
-10 4 -10 5 0 19 -15 30 -34 19 -30 20 -40 11 -78 -5 -23 -10 -92 -10 -151 0
-111 -12 -159 -44 -186 -15 -13 -16 -12 -6 15 14 36 7 77 -29 168 -16 39 -31
90 -35 114 l-6 43 33 -6 c27 -5 36 -3 41 11 10 26 -6 31 -128 39 -166 10 -160
7 -153 75 5 58 41 146 78 189 20 25 30 22 42 -14 2 -6 42 -9 99 -7 61 2 99 -1
103 -8 3 -6 -3 -26 -15 -45 -19 -31 -20 -36 -5 -41 9 -4 25 2 38 14 12 11 35
25 50 31 40 15 107 14 113 -2 3 -8 -8 -61 -24 -118 -58 -204 -82 -414 -62
-544 16 -107 41 -167 135 -315 86 -136 141 -252 151 -315 3 -25 -1 -65 -11
-105 -38 -141 0 -697 115 -1698 10 -89 8 -99 -28 -155 -28 -42 -24 -53 25 -63
42 -8 54 15 51 98 -2 35 1 75 6 90 7 24 5 29 -20 40 l-27 13 6 280 c4 154 12
359 19 455 6 96 12 387 12 646 l1 471 -55 58 c-30 32 -74 78 -98 102 -23 23
-40 43 -38 43 22 0 115 -41 195 -86 140 -79 207 -98 339 -92 82 3 119 10 157
27 46 20 115 75 115 92 0 3 -28 14 -61 24 -122 34 -275 88 -333 117 -85 43
-161 118 -186 185 -21 57 -28 163 -10 163 21 0 71 -31 120 -75 28 -25 59 -45
70 -45 10 0 26 -3 36 -7 15 -5 16 -2 10 33 -10 50 -29 87 -81 154 -63 82 -77
115 -73 169 3 25 8 54 12 63 6 14 3 18 -13 18 -11 0 -25 -6 -30 -13 -69 -84
-72 -83 -46 18 24 92 73 173 155 255 84 85 165 138 257 169 66 22 177 28 203
11 11 -7 3 -10 -30 -10 -51 -1 -142 -29 -147 -46 -6 -19 73 -44 229 -74 80
-16 174 -40 207 -53 34 -14 61 -23 61 -22 0 2 -29 26 -66 55 -76 60 -85 77
-57 100 21 17 21 17 -20 44 -86 56 -265 92 -399 82 -209 -15 -327 -101 -328
-238 0 -49 -4 -61 -35 -98 -83 -100 -145 -289 -145 -448 0 -149 55 -316 134
-408 49 -57 128 -105 205 -126 l66 -17 -79 0 -79 -1 -42 44 c-23 24 -69 62
-102 84 -34 23 -76 59 -95 82 -58 67 -82 175 -58 258 5 19 16 84 25 145 37
259 155 804 219 1016 18 57 26 108 26 157 0 63 3 76 26 103 14 17 30 31 34 31
19 0 51 -46 67 -97 9 -29 18 -51 21 -49 2 3 5 28 7 56 6 88 12 90 162 56 143
-32 577 -37 733 -8 l45 8 -63 8 c-96 11 -222 51 -324 102 l-91 46 84 84 c45
46 81 86 78 88 -3 3 -34 -8 -70 -25 -105 -51 -111 -52 -104 -29 6 19 3 20 -33
14 -36 -6 -46 -1 -114 46 l-75 52 -104 8 c-129 9 -220 39 -424 142 -218 110
-375 240 -435 361 -17 35 -32 80 -33 101 -2 20 -8 41 -15 45 -10 6 -10 15 -2
35 5 15 10 39 10 54 -1 27 -1 27 -18 6 -17 -20 -17 -17 -18 75 0 137 -34 233
-114 324 -58 65 -117 98 -190 104 -50 5 -67 2 -112 -20 -69 -34 -119 -84 -98
-97 13 -8 13 -14 -2 -41 -22 -37 -23 -49 -4 -49 8 0 27 29 44 63 18 39 42 73
61 87 40 28 50 20 23 -17 -92 -131 -137 -318 -113 -473 11 -69 61 -238 80
-269 14 -22 60 -4 79 29 9 17 25 30 34 30 31 0 28 -17 -7 -44 -48 -37 -61 -64
-41 -84 12 -13 18 -14 28 -4 19 19 49 14 70 -13 29 -38 166 -124 348 -220 91
-48 187 -103 214 -122 35 -25 51 -32 59 -24 6 6 24 11 39 11 21 0 28 -5 28
-20 0 -24 33 -42 140 -76 45 -14 89 -33 98 -42 16 -16 20 -15 74 10 31 15 59
32 63 38 4 6 19 0 40 -16 30 -23 39 -25 94 -18 80 9 79 -7 -2 -39 -207 -83
-446 -55 -732 85 -38 19 -164 83 -278 142 -114 60 -210 106 -213 103 -3 -2 42
-34 98 -70 94 -60 164 -117 143 -117 -4 0 -49 19 -99 43 -195 92 -357 224
-442 359 -28 44 -66 136 -62 149 6 17 79 -85 74 -104 -3 -11 2 -20 12 -24 9
-3 31 -17 49 -30 l32 -23 -14 34 c-8 19 -19 54 -25 79 -16 75 -29 101 -43 89
-10 -8 -12 5 -9 62 5 92 -29 197 -97 303 l-48 75 17 60 c10 32 21 77 25 99 10
58 29 43 35 -28 8 -103 32 -99 50 9 21 123 -1 209 -81 315 -38 50 -38 53 -17
53 47 0 52 16 14 45 -20 15 -36 31 -36 35 0 5 24 17 53 27 42 14 83 18 207 18
169 0 257 -14 410 -64 49 -17 121 -31 170 -35 178 -14 308 -43 705 -156 372
-106 505 -135 660 -142 l60 -3 27 50 c15 28 36 77 47 109 17 54 19 58 30 39
19 -36 13 -75 -24 -151 -19 -40 -30 -72 -26 -72 13 0 78 75 97 112 23 44 30
157 12 180 -17 22 -494 165 -845 253 -182 45 -535 119 -633 131 -48 6 -61 13
-110 60 -54 51 -56 52 -83 38 -93 -49 -362 -11 -435 62 -30 30 -35 32 -49 19
-8 -8 -31 -15 -52 -15 -33 0 -39 4 -54 35 -16 34 -16 35 6 50 52 34 114 47
239 52 141 6 220 -5 302 -41 56 -26 104 -70 87 -81 -16 -9 -13 -35 4 -35 9 0
15 9 15 23 0 12 7 33 16 46 16 22 21 23 87 17 39 -4 141 -22 226 -41 145 -32
258 -63 651 -179 235 -69 393 -105 518 -118 105 -12 126 -18 102 -33 -14 -9
-12 -25 3 -25 17 0 71 57 90 96 22 42 51 160 44 177 -7 18 -269 130 -457 195
-368 127 -868 245 -1405 332 -262 42 -237 33 -219 76 18 42 15 90 -4 86 -8 -1
-11 1 -8 6 9 15 222 22 354 12 260 -21 452 -65 968 -224 434 -133 589 -173
750 -191 l61 -7 22 52 c31 71 46 148 37 191 -6 35 -11 38 -99 77 -336 148
-808 289 -1277 381 -85 17 -164 33 -175 36 -14 3 -25 21 -37 62 -10 32 -29 72
-42 88 l-25 30 -1 -31 c0 -17 5 -45 11 -63 15 -43 6 -65 -22 -51 -11 7 -80 16
-152 21 -209 15 -245 32 -233 111 4 24 14 54 23 67 15 24 17 24 132 17 223
-13 463 -53 726 -121 218 -56 710 -212 887 -282 136 -53 138 -53 216 -47 67 6
81 4 95 -11 10 -10 20 -16 22 -13 7 7 64 183 70 219 6 33 3 39 -33 70 -100 85
-214 134 -522 225 -529 157 -664 193 -869 230 -60 11 -101 24 -113 36 -10 10
-22 18 -28 18 -5 0 -10 9 -10 20 0 17 -4 19 -27 13 -16 -5 -82 -8 -148 -8 -97
0 -134 4 -190 22 -97 32 -95 29 -83 93 15 86 8 84 208 77 253 -8 428 -47 910
-202 491 -158 648 -202 829 -235 63 -11 120 -20 127 -20 26 0 52 136 46 241
-2 35 -4 37 -89 77 -201 93 -481 187 -1003 337 -146 42 -325 94 -397 117 -129
41 -133 43 -133 70 0 15 -4 28 -10 28 -5 0 -10 -9 -10 -20 0 -12 -12 -32 -26
-47 -23 -23 -31 -25 -93 -21 -48 2 -96 15 -169 43 -111 43 -111 43 -73 109 43
76 105 88 296 56 143 -24 209 -21 270 10 l37 19 -5 -22 c-2 -12 -8 -29 -11
-38 -6 -14 -1 -17 28 -17 19 0 64 -12 101 -27 56 -22 72 -25 97 -16 42 15 44
14 22 -10 -16 -17 -16 -22 -4 -30 21 -13 174 -62 325 -102 72 -20 262 -79 424
-131 312 -102 469 -147 475 -137 21 34 56 183 56 235 l0 64 -212 90 c-454 194
-855 322 -1198 382 -36 7 -70 16 -76 21 -7 5 -39 23 -73 39 -34 17 -61 34 -61
39 0 5 -17 0 -37 -11 -32 -16 -51 -19 -118 -15 -82 6 -195 38 -215 62 -14 17
4 91 28 119 15 16 28 17 132 11 259 -15 482 -56 745 -137 55 -17 269 -93 475
-168 393 -145 567 -203 581 -195 4 3 17 36 30 73 27 84 44 105 71 91 11 -6 22
-8 24 -6 10 10 6 73 -7 108 -12 33 -21 39 -137 88 -210 90 -371 148 -787 286
-220 73 -454 151 -519 175 l-119 42 -77 -13 c-65 -10 -90 -10 -174 5 -53 9
-120 26 -147 37 -48 21 -49 22 -32 41 10 11 27 39 38 62 l20 41 115 -1 c299
-2 624 -86 1245 -322 116 -44 260 -96 320 -116 100 -33 295 -86 316 -86 18 0
52 87 57 146 9 117 6 120 -196 214 -596 278 -978 405 -1416 470 -72 11 -172
23 -223 26 -86 6 -93 8 -113 36 -22 30 -22 33 -16 295 l6 265 40 46 c43 48 56
79 47 112 -4 14 0 20 11 20 10 0 40 11 67 24 38 18 46 25 33 31 -9 3 -30 -1
-47 -10 -40 -20 -59 -10 -34 17 10 11 23 40 28 65 l10 45 50 2 c34 1 64 10 95
29 l45 27 -70 -2 c-38 0 -83 -3 -100 -4z m-1070 -4021 c22 -8 56 -18 75 -23
19 -4 29 -8 23 -9 -8 -1 -13 -17 -13 -45 0 -50 -8 -56 -73 -56 -70 0 -114 18
-144 57 -16 21 -42 52 -59 70 l-32 33 92 -7 c50 -3 109 -12 131 -20z"/>
<path d="M3455 12740 c-75 -12 -147 -30 -160 -41 -16 -16 105 -10 135 6 17 9
30 13 30 9 0 -3 -64 -72 -141 -153 -78 -80 -160 -172 -182 -203 -23 -32 -45
-58 -49 -58 -13 0 -9 37 8 74 16 33 14 66 -4 66 -16 0 -75 -142 -80 -191 -4
-46 -3 -48 38 -78 59 -42 110 -54 204 -48 66 4 93 12 160 45 95 47 138 89 155
152 16 54 41 91 85 125 l33 25 46 -19 c24 -11 117 -37 205 -59 199 -50 270
-81 323 -140 l39 -45 43 17 c55 21 60 20 47 -5 -16 -30 4 -72 52 -110 41 -33
68 -75 68 -108 0 -15 9 -22 38 -26 63 -11 111 -25 117 -34 3 -5 1 -21 -5 -36
-9 -23 -6 -30 20 -55 34 -32 37 -45 14 -58 -14 -8 -7 -13 33 -26 27 -9 101
-50 164 -90 110 -72 112 -75 79 -78 -41 -4 -49 -21 -15 -36 14 -6 39 -34 56
-62 17 -27 40 -56 50 -64 20 -13 20 -15 3 -66 -17 -52 -17 -54 7 -129 13 -42
23 -93 23 -114 0 -35 2 -38 25 -35 20 2 29 12 41 48 11 33 22 46 38 48 27 4
27 11 2 -151 -23 -144 -41 -223 -66 -283 -14 -33 -17 -36 -26 -20 -14 25 -3
98 27 185 30 85 31 95 5 121 -35 35 -47 26 -42 -34 5 -62 -22 -132 -83 -217
-19 -27 -35 -51 -35 -53 0 -3 10 -6 23 -8 26 -4 28 -32 7 -148 -8 -44 -14
-144 -14 -242 0 -158 -6 -195 -21 -128 -11 50 -22 43 -29 -18 -4 -32 -22 -123
-41 -203 -44 -184 -44 -185 3 -206 53 -24 72 -43 72 -70 0 -31 -23 -30 -44 3
-14 20 -24 25 -49 22 -51 -5 -75 -66 -88 -218 -7 -88 -24 -177 -55 -298 -46
-181 -54 -262 -30 -317 12 -29 13 -27 19 47 9 108 31 211 79 368 23 74 49 167
59 205 l18 70 0 -51 c2 -142 -55 -554 -120 -859 -27 -131 -100 -420 -114 -456
-4 -12 1 -18 19 -23 33 -8 34 -25 2 -19 -29 6 -31 -1 -79 -232 -28 -136 -31
-169 -33 -355 -1 -113 -2 -209 -3 -214 0 -5 -12 1 -25 13 l-24 23 -8 -48 c-23
-141 2 -297 76 -468 36 -83 41 -91 65 -89 28 2 76 29 158 88 94 67 171 70 322
12 92 -35 175 -52 175 -36 0 5 -4 9 -10 9 -6 0 -10 27 -10 60 0 65 1 66 61 49
32 -10 42 -9 65 5 23 16 25 22 20 54 -4 21 -9 54 -12 75 -4 20 -11 40 -16 43
-5 4 -71 28 -146 55 -126 45 -242 108 -242 131 0 5 9 4 19 -2 37 -19 60 -12
75 24 22 54 48 62 109 35 42 -17 184 -69 192 -69 1 0 5 18 8 41 7 53 31 79 73
79 18 0 36 5 39 10 4 6 1 35 -5 66 -16 77 -55 117 -185 189 -58 33 -113 67
-122 77 -15 17 -14 18 9 18 31 0 50 21 48 52 -5 62 9 63 131 3 94 -46 114 -50
114 -24 0 8 26 31 58 52 64 43 67 52 36 124 -11 27 -18 59 -15 74 4 23 -2 29
-104 78 -60 29 -118 63 -130 76 l-22 23 42 38 c31 29 41 43 37 61 -2 13 0 23
5 23 4 0 44 -18 88 -40 82 -41 133 -53 110 -26 -19 24 -8 61 18 64 21 3 22 1
13 -17 -15 -28 -14 -31 13 -31 20 0 25 7 35 44 16 64 13 115 -8 161 -21 48
-101 122 -178 166 -52 30 -55 33 -33 41 21 8 22 13 16 57 -11 84 14 87 129 17
77 -46 128 -49 104 -5 -12 23 -7 24 32 3 53 -27 58 -17 53 93 -8 167 -4 157
-96 204 -56 30 -89 55 -109 82 -16 22 -29 44 -29 48 0 4 15 5 34 2 41 -6 51 6
28 38 -16 22 -28 69 -18 69 2 0 27 -15 55 -34 45 -30 107 -58 178 -80 33 -10
44 25 50 167 7 137 9 134 -98 197 -65 39 -139 101 -139 118 0 4 12 8 26 7 15
0 31 8 38 17 9 15 3 26 -38 67 -33 33 -47 55 -43 66 6 13 16 10 64 -23 113
-76 140 -84 195 -56 l30 16 -7 -51 c-8 -56 4 -81 36 -81 25 0 33 36 25 120 -6
53 -4 76 9 99 8 17 20 31 25 31 42 0 -55 98 -185 187 -87 59 -159 123 -139
123 5 0 33 -16 61 -35 29 -19 55 -35 58 -35 10 0 5 61 -6 83 -7 12 -35 46 -63
76 -64 69 -46 79 38 20 144 -101 189 -129 204 -129 11 1 8 6 -10 16 -37 19
-53 51 -37 70 27 33 70 -1 88 -70 6 -24 17 -48 25 -55 11 -9 17 -5 30 23 30
64 14 122 -64 238 -46 66 -35 74 29 23 27 -22 48 -32 54 -26 23 23 -59 102
-238 228 -66 46 -133 95 -150 108 -55 45 -6 26 76 -30 113 -77 145 -73 113 15
-8 25 -35 110 -58 190 -55 185 -58 193 -211 461 -275 482 -334 541 -678 670
-89 33 -143 61 -215 112 -53 37 -128 83 -167 102 -70 34 -229 75 -435 110 -93
16 -300 22 -333 9 -13 -5 -17 -1 -15 17 3 20 -3 24 -35 30 -44 7 -62 21 -54
43 9 23 210 21 418 -4 154 -19 395 -25 359 -8 -20 9 -438 142 -525 167 -171
49 -384 70 -510 51z"/>
<path d="M3281 12635 c-17 -19 -38 -49 -46 -66 -15 -29 -15 -30 2 -21 10 6 27
20 37 31 11 12 27 21 38 21 14 0 18 8 18 35 0 44 -10 44 -49 0z"/>
<path d="M1699 12506 c-67 -23 -123 -74 -194 -176 -21 -30 -50 -70 -64 -89
-24 -32 -24 -33 -5 -27 29 9 54 -2 54 -24 0 -10 -9 -40 -20 -66 -21 -49 -23
-105 -5 -111 16 -5 83 112 183 317 50 102 89 186 89 187 -1 0 -18 -4 -38 -11z"/>
<path d="M1364 12038 c8 -49 10 -52 31 -45 19 8 19 36 -1 65 -25 36 -37 27
-30 -20z"/>
<path d="M4729 10529 c-33 -33 -65 -129 -43 -129 33 0 83 77 84 128 0 28 -14
28 -41 1z"/>
<path d="M4623 8690 c-18 -53 -33 -108 -33 -123 0 -25 2 -27 21 -17 32 18 59
87 59 155 0 33 -4 65 -8 71 -4 6 -22 -33 -39 -86z"/>
<path d="M4402 8659 l-23 -29 22 -32 c16 -22 24 -27 27 -17 3 8 9 20 15 27 8
10 12 10 18 0 4 -7 11 -10 14 -6 4 4 -36 75 -48 84 -1 1 -12 -12 -25 -27z"/>
<path d="M4570 8444 c0 -42 -12 -144 -26 -228 -31 -184 -43 -306 -35 -349 12
-55 88 338 106 546 7 80 -1 107 -31 107 -11 0 -14 -18 -14 -76z"/>
<path d="M4412 8485 c-16 -36 -15 -65 3 -65 8 0 15 8 15 19 0 10 7 24 15 31
21 17 19 40 -3 40 -11 0 -24 -11 -30 -25z"/>
<path d="M410 8160 c0 -25 4 -30 25 -30 21 0 25 5 25 30 0 25 -4 30 -25 30
-21 0 -25 -5 -25 -30z"/>
<path d="M4455 7767 c-9 -44 -3 -79 13 -85 8 -3 12 12 12 52 0 63 -16 83 -25
33z"/>
<path d="M2250 7365 c-30 -16 -29 -22 3 -44 13 -9 48 -44 77 -79 47 -57 101
-102 123 -102 13 0 -3 90 -26 143 -36 86 -109 120 -177 82z"/>
<path d="M2702 6674 c4 -32 32 -54 48 -38 8 8 5 19 -13 38 -31 33 -39 33 -35
0z"/>
<path d="M1975 6350 c3 -5 11 -10 16 -10 6 0 7 5 4 10 -3 6 -11 10 -16 10 -6
0 -7 -4 -4 -10z"/>
<path d="M3306 4969 c-27 -27 -28 -30 -13 -53 9 -13 35 -37 59 -53 23 -16 49
-40 57 -55 14 -24 13 -28 -16 -62 -44 -50 -78 -110 -103 -186 -27 -81 -38
-259 -21 -341 26 -127 102 -230 199 -273 42 -19 46 -19 105 -3 34 10 104 27
155 39 51 12 92 27 92 34 0 6 -7 31 -15 54 -20 56 -19 82 4 112 l19 24 -54 74
c-30 41 -116 166 -190 278 -106 159 -133 206 -124 217 6 7 32 21 57 29 142 48
271 -15 346 -167 34 -70 46 -125 47 -212 1 -99 20 -61 27 53 6 105 -12 187
-62 278 -38 67 -100 130 -140 140 -39 10 -107 -2 -159 -28 l-46 -22 -58 61
c-31 34 -74 69 -94 78 -44 18 -36 19 -72 -16z"/>
<path d="M3455 3041 c-31 -14 -36 -20 -23 -26 16 -7 71 16 83 35 9 15 -16 12
-60 -9z"/>
<path d="M2520 2430 c0 -5 6 -10 14 -10 8 0 17 -7 20 -16 4 -9 9 -14 13 -10 7
7 -25 46 -39 46 -4 0 -8 -4 -8 -10z"/>
<path d="M2504 2154 c3 -9 6 -20 6 -25 0 -5 5 -9 12 -9 6 0 20 -8 31 -17 14
-13 12 -6 -8 25 -27 41 -53 58 -41 26z"/>
<path d="M2357 2143 c-11 -10 -8 -82 3 -104 14 -24 40 -25 40 0 0 10 3 32 6
48 8 38 -27 78 -49 56z"/>
<path d="M4165 2080 c-9 -14 50 -74 64 -66 17 11 13 41 -7 59 -21 19 -48 22
-57 7z"/>
<path d="M2210 1752 c-2 -83 181 -227 302 -240 60 -6 100 9 48 17 -32 6 -35 9
-32 39 2 31 -10 43 -23 22 -8 -13 -76 -13 -95 0 -13 9 -12 12 4 25 11 8 30 15
42 15 49 0 74 26 32 32 -15 2 -28 15 -37 36 -11 24 -21 32 -35 30 -18 -3 -21
-10 -21 -51 -1 -82 -49 -90 -102 -17 -51 72 -82 106 -83 92z"/>
<path d="M2530 1750 c-11 -7 -12 -14 -2 -34 16 -35 32 -33 32 3 0 34 -10 44
-30 31z"/>
<path d="M3432 1570 c-33 -8 -60 -26 -51 -34 6 -6 139 23 158 34 20 12 -58 12
-107 0z"/>
<path d="M2280 1520 c-18 -11 -16 -12 43 -34 44 -17 87 -59 74 -72 -3 -3 -26
8 -51 25 -47 32 -106 51 -106 34 0 -6 14 -27 30 -48 34 -43 34 -58 1 -63 -50
-8 -35 -49 31 -83 23 -12 40 -29 44 -45 9 -34 1 -38 -35 -20 -16 9 -33 16 -37
16 -11 0 7 -122 26 -178 18 -50 18 -53 2 -47 -31 12 -36 10 -40 -12 -5 -35 24
-85 72 -123 41 -32 66 -67 66 -90 0 -19 -27 -9 -56 20 -37 38 -49 38 -29 1 18
-36 65 -74 126 -100 47 -21 278 -85 284 -79 2 2 -1 23 -7 47 -10 39 -9 46 7
57 23 17 32 10 15 -11 -10 -12 -7 -21 19 -50 17 -20 31 -40 31 -45 0 -20 513
2 548 24 5 3 15 26 21 51 11 43 23 56 35 36 3 -5 15 -7 26 -4 31 8 25 -24 -7
-41 -36 -20 -24 -19 71 3 43 11 85 26 94 34 14 14 13 18 -2 42 -25 37 -8 53
37 37 60 -22 73 -16 111 46 42 70 92 191 107 262 6 29 9 90 7 134 -5 93 -29
156 -85 224 l-37 45 -80 -6 c-45 -3 -128 -20 -186 -37 -58 -17 -138 -34 -177
-37 l-73 -6 0 -32 c0 -17 -6 -40 -14 -50 -13 -18 -14 -18 -25 2 -6 12 -8 28
-6 36 5 11 -35 15 -247 20 -315 8 -356 15 -484 78 -105 51 -119 55 -144 39z"/>
<path d="M2827 1503 c-4 -3 -7 -10 -7 -15 0 -11 147 -10 154 1 9 14 -133 29
-147 14z"/>
<path d="M4575 764 c-26 -40 -92 -63 -229 -79 -136 -16 -176 -30 -324 -113
-48 -27 -142 -73 -209 -101 -83 -36 -135 -65 -165 -93 -41 -39 -42 -41 -21
-49 46 -17 235 -39 339 -39 325 0 615 111 671 258 25 67 25 192 -1 221 -25 28
-40 26 -61 -5z"/>
<path d="M2416 621 c-3 -5 3 -11 14 -14 12 -3 30 -27 46 -61 25 -55 55 -86 82
-86 31 0 -27 138 -68 160 -23 12 -67 13 -74 1z"/>
<path d="M3506 330 c-142 -83 -386 -103 -883 -74 -116 7 -125 1 -78 -54 58
-69 199 -123 266 -103 21 7 43 20 49 30 12 24 64 36 55 13 -3 -9 2 -31 12 -50
18 -33 18 -33 -6 -51 l-24 -18 33 -12 c18 -6 55 -11 81 -11 l48 0 3 78 3 77
35 5 c27 4 35 10 35 25 0 14 8 21 28 23 32 4 44 -16 28 -47 -15 -27 4 -38 28
-17 27 24 147 66 189 65 l37 0 -52 -27 c-55 -27 -67 -42 -34 -42 11 0 26 -7
35 -15 19 -20 21 -19 23 6 3 30 30 57 88 86 65 33 85 51 85 78 0 13 -8 32 -17
43 l-18 21 -49 -29z"/>
<path d="M2558 109 c-10 -7 -9 -9 5 -9 10 0 43 -13 75 -29 86 -44 128 -53 166
-36 30 13 30 13 6 14 -14 1 -56 13 -95 27 -89 33 -140 43 -157 33z"/>
</g>
</svg>
